<svg width="4714" height="1080" viewBox="0 0 4714 1080" fill="none" xmlns="http://www.w3.org/2000/svg">
<path d="M1455.69 993.637C1403.94 993.637 1358.25 982.572 1318.77 960.441C1279.25 938.311 1248.75 906.767 1227.34 865.919C1205.87 825.072 1195.13 778.059 1195.13 724.88C1195.13 671.701 1206.03 625.073 1227.83 584.886C1249.63 544.699 1280.46 513.541 1320.32 491.41C1360.17 469.28 1406.3 458.215 1458.77 458.215C1524.17 458.215 1577.62 475.391 1619.19 509.797C1660.75 544.204 1686.62 591.052 1696.86 650.286H1583.46C1575.97 620.339 1561 596.447 1538.48 578.776C1516.02 561.049 1488.39 552.186 1455.69 552.186C1411.42 552.186 1375.81 568.206 1348.89 600.19C1321.97 632.23 1308.54 673.738 1308.54 724.88C1308.54 776.022 1321.97 818.741 1348.89 851.056C1375.81 883.426 1411.37 899.61 1455.69 899.61C1489.76 899.61 1518 890.582 1540.52 872.526C1562.98 854.469 1577.62 830.137 1584.45 799.473H1696.86C1686.62 860.084 1660.42 907.648 1618.19 941.999C1575.97 976.351 1521.8 993.582 1455.74 993.582L1455.69 993.637Z" fill="#FFBF00"/>
<path d="M2454.03 987.526H2395.79C2361.71 987.526 2337.21 980.37 2322.24 966.056C2307.26 951.743 2299.78 930.989 2299.78 903.739C2260.25 963.689 2202.72 993.637 2127.08 993.637C2068.51 993.637 2021.5 979.984 1986.04 952.734C1950.65 925.484 1932.92 887.995 1932.92 840.321C1932.92 786.482 1952.02 745.139 1990.12 716.182C2028.21 687.225 2083.81 672.747 2156.7 672.747H2280.07C2284.75 672.747 2288.55 668.949 2288.55 664.269V641.093C2288.55 611.806 2278.31 588.795 2257.88 572.114C2237.46 555.434 2209.16 547.067 2173.05 547.067C2141.01 547.067 2114.64 554.058 2093.83 568.041C2073.08 582.024 2060.64 600.576 2056.51 623.752H1948.17C1953.62 571.289 1976.8 530.606 2017.64 501.65C2058.49 472.693 2112 458.215 2178.06 458.215C2248.25 458.215 2302.36 474.565 2340.51 507.265C2378.66 539.965 2397.71 586.978 2397.71 648.305V854.744C2397.71 879.242 2409.27 891.518 2432.45 891.518H2453.92V987.581L2454.03 987.526ZM2151.58 754.552C2117.5 754.552 2091.3 761.213 2072.91 774.48C2054.53 787.748 2045.33 807.346 2045.33 833.219C2045.33 855.68 2054.03 873.737 2071.37 887.389C2088.77 901.042 2112.44 907.813 2142.39 907.813C2188.02 907.813 2223.64 895.537 2249.19 871.039C2274.73 846.542 2287.83 813.842 2288.55 772.939V754.552H2151.64H2151.58Z" fill="#FFBF00"/>
<path d="M2431.51 567.545V470.491H2513.98C2518.66 470.491 2522.46 466.692 2522.46 462.013V384.887C2522.46 323.395 2572.33 273.52 2633.82 273.52V462.068C2633.82 466.747 2637.62 470.546 2642.3 470.546H2759.5V567.6H2642.3C2637.62 567.6 2633.82 571.398 2633.82 576.078V840.43C2633.82 860.854 2637.9 875.333 2646.1 883.865C2654.25 892.398 2668.23 896.637 2687.99 896.637H2771.78V993.691H2665.53C2615.82 993.691 2579.54 982.131 2556.7 958.954C2533.85 935.778 2522.46 900.05 2522.46 851.661V576.078C2522.46 571.398 2518.66 567.6 2513.98 567.6H2431.51V567.545Z" fill="#FFBF00"/>
<path d="M1871.04 172.172V985.159C1871.04 989.838 1867.24 993.637 1862.56 993.637H1768.65C1763.97 993.637 1760.17 989.838 1760.17 985.159V283.594C1760.17 222.103 1809.83 172.227 1871.04 172.227V172.172Z" fill="#FFBF00"/>
<path d="M1455.69 993.637C1403.94 993.637 1358.25 982.572 1318.77 960.441C1279.25 938.311 1248.75 906.767 1227.34 865.919C1205.87 825.072 1195.13 778.059 1195.13 724.88C1195.13 671.701 1206.03 625.073 1227.83 584.886C1249.63 544.699 1280.46 513.541 1320.32 491.41C1360.17 469.28 1406.3 458.215 1458.77 458.215C1524.17 458.215 1577.62 475.391 1619.19 509.797C1660.75 544.204 1686.62 591.052 1696.86 650.286H1583.46C1575.97 620.339 1561 596.447 1538.48 578.776C1516.02 561.049 1488.39 552.186 1455.69 552.186C1411.42 552.186 1375.81 568.206 1348.89 600.19C1321.97 632.23 1308.54 673.738 1308.54 724.88C1308.54 776.022 1321.97 818.741 1348.89 851.056C1375.81 883.426 1411.37 899.61 1455.69 899.61C1489.76 899.61 1518 890.582 1540.52 872.526C1562.98 854.469 1577.62 830.137 1584.45 799.473H1696.86C1686.62 860.084 1660.42 907.648 1618.19 941.999C1575.97 976.351 1521.8 993.582 1455.74 993.582L1455.69 993.637Z" fill="#FFBF00"/>
<path d="M2454.03 987.526H2395.79C2361.71 987.526 2337.21 980.37 2322.24 966.056C2307.26 951.743 2299.78 930.989 2299.78 903.739C2260.25 963.689 2202.72 993.637 2127.08 993.637C2068.51 993.637 2021.5 979.984 1986.04 952.734C1950.65 925.484 1932.92 887.995 1932.92 840.321C1932.92 786.482 1952.02 745.139 1990.12 716.182C2028.21 687.225 2083.81 672.747 2156.7 672.747H2280.07C2284.75 672.747 2288.55 668.949 2288.55 664.269V641.093C2288.55 611.806 2278.31 588.795 2257.88 572.114C2237.46 555.434 2209.16 547.067 2173.05 547.067C2141.01 547.067 2114.64 554.058 2093.83 568.041C2073.08 582.024 2060.64 600.576 2056.51 623.752H1948.17C1953.62 571.289 1976.8 530.606 2017.64 501.65C2058.49 472.693 2112 458.215 2178.06 458.215C2248.25 458.215 2302.36 474.565 2340.51 507.265C2378.66 539.965 2397.71 586.978 2397.71 648.305V854.744C2397.71 879.242 2409.27 891.518 2432.45 891.518H2453.92V987.581L2454.03 987.526ZM2151.58 754.552C2117.5 754.552 2091.3 761.213 2072.91 774.48C2054.53 787.748 2045.33 807.346 2045.33 833.219C2045.33 855.68 2054.03 873.737 2071.37 887.389C2088.77 901.042 2112.44 907.813 2142.39 907.813C2188.02 907.813 2223.64 895.537 2249.19 871.039C2274.73 846.542 2287.83 813.842 2288.55 772.939V754.552H2151.64H2151.58Z" fill="#FFBF00"/>
<path d="M2431.51 567.545V470.491H2513.98C2518.66 470.491 2522.46 466.692 2522.46 462.013V384.887C2522.46 323.395 2572.33 273.52 2633.82 273.52V462.068C2633.82 466.747 2637.62 470.546 2642.3 470.546H2759.5V567.6H2642.3C2637.62 567.6 2633.82 571.398 2633.82 576.078V840.43C2633.82 860.854 2637.9 875.333 2646.1 883.865C2654.25 892.398 2668.23 896.637 2687.99 896.637H2771.78V993.691H2665.53C2615.82 993.691 2579.54 982.131 2556.7 958.954C2533.85 935.778 2522.46 900.05 2522.46 851.661V576.078C2522.46 571.398 2518.66 567.6 2513.98 567.6H2431.51V567.545Z" fill="#FFBF00"/>
<path d="M1871.04 172.172V985.159C1871.04 989.838 1867.24 993.637 1862.56 993.637H1768.65C1763.97 993.637 1760.17 989.838 1760.17 985.159V283.594C1760.17 222.103 1809.83 172.227 1871.04 172.227V172.172Z" fill="#FFBF00"/>
<g clip-path="url(#clip0_570_183)">
<path d="M998.22 0C1072.12 0 1132.03 62.9611 1132.03 136.856V621.715C1127.33 611.453 1121.75 601.498 1115.31 591.854C1092.25 555.58 1059.88 527.078 1018.22 506.351C976.556 485.623 928.569 487.147 874.258 487.147C816.227 487.147 765.636 486.271 722.485 508.294C680.078 529.67 646.598 559.791 622.047 598.655C608.082 621.453 598.215 646.145 592.441 672.731H520.604L443.478 759.03H512.167C528.293 758.228 607.235 756.724 661.42 756.724C627.267 782.995 602.996 814.206 618.795 855.002C620.205 857.344 621.661 859.666 623.163 861.965C647.714 899.534 681.566 928.682 724.717 949.41C767.868 970.138 817.343 968.614 873.142 968.614C917.781 968.614 987.715 968.004 1022.68 953.754C1058.39 939.504 1074.76 925.443 1098.57 900.829C1111.76 887.253 1122.91 872.929 1132.03 857.856V949.244C1132.03 1023.14 1071.94 1080 998.048 1080H133.806C59.9104 1080 8.87971e-05 1020.09 0 946.194V133.806C8.14439e-05 59.9104 59.9104 7.54712e-05 133.806 0H998.22ZM1132.03 755V817.27H1009.07C990.302 855.041 951.326 881 906.285 881H843.714C780.359 881 729 829.641 729 766.286V755H1132.03ZM909 569C969.199 569 1018 617.801 1018 678H726C726 617.801 774.801 569 835 569H909ZM1020.25 302.883C1020.25 302.883 940.7 327.821 886.149 336.849C831.599 345.876 740.877 349.114 740.877 349.114V421.764H1020.25V302.883Z" fill="#FFBF00"/>
</g>
<path d="M3160 246V834" stroke="white" stroke-width="8"/>
<g clip-path="url(#clip1_570_183)">
<path d="M4289.83 897.851V629.434L4156.54 763.643L4289.83 897.851ZM4614.3 763.643C4614.3 715.818 4580.18 692.683 4531.37 692.683H4401.02V834.661H4531.37C4580.18 834.603 4614.3 811.468 4614.3 763.643ZM4574.25 0H3703.27C3611.48 0 3564 49.3787 3564 145.028V934.914C3564 1030.56 3611.42 1079.94 3703.27 1079.94H4289.83V1049.1C4289.83 995.055 4307.67 964.265 4349.11 947.288V944.18H4184.69C4175.82 944.18 4172.83 942.626 4166.9 936.468L4081.04 843.926L3992.18 938.022C3987.75 942.684 3984.75 944.18 3975.83 944.18H3844.04C3836.62 944.18 3836.62 939.518 3841.05 934.914L4009.9 763.7L3838.06 590.875C3833.63 586.213 3835.12 581.609 3842.55 581.609H3975.89C3983.26 581.609 3986.25 583.106 3990.68 587.767L4084.03 684.971L4171.45 587.767C4176 583.106 4178.87 581.609 4184.8 581.609H4532.93C4612.86 581.609 4684.06 609.349 4710.64 692.74H4713.64V145.201C4713.52 49.3787 4666.1 0 4574.25 0ZM4534.25 944.122H4405.39C4402.4 944.122 4400.96 945.676 4400.96 948.784V1079.89H4574.25C4666.04 1079.89 4713.52 1030.56 4713.52 934.857V834.603H4710.53C4683.88 917.937 4615.74 944.122 4534.25 944.122Z" fill="white"/>
</g>
<defs>
<clipPath id="clip0_570_183">
<rect width="1132.08" height="1080" rx="126.612" fill="white"/>
</clipPath>
<clipPath id="clip1_570_183">
<rect width="1149.64" height="1080" fill="white" transform="translate(3564)"/>
</clipPath>
</defs>
</svg>
